<svg xmlns="http://www.w3.org/2000/svg" viewBox="0 0 600 56"><rect x="0" y="27.25" width="2" height="1.50" rx="1" fill="#d0b1ed"/><rect x="4" y="27.25" width="2" height="1.50" rx="1" fill="#d0b1ed"/><rect x="8" y="27.25" width="2" height="1.50" rx="1" fill="#d0b1ed"/><rect x="12" y="27.25" width="2" height="1.50" rx="1" fill="#d0b1ed"/><rect x="16" y="27.25" width="2" height="1.50" rx="1" fill="#d0b1ed"/><rect x="20" y="27.25" width="2" height="1.50" rx="1" fill="#d0b1ed"/><rect x="24" y="27.25" width="2" height="1.50" rx="1" fill="#d0b1ed"/><rect x="28" y="27.25" width="2" height="1.50" rx="1" fill="#d0b1ed"/><rect x="32" y="27.25" width="2" height="1.50" rx="1" fill="#d0b1ed"/><rect x="36" y="27.25" width="2" height="1.50" rx="1" fill="#d0b1ed"/><rect x="40" y="27.25" width="2" height="1.50" rx="1" fill="#d0b1ed"/><rect x="44" y="27.25" width="2" height="1.50" rx="1" fill="#d0b1ed"/><rect x="48" y="27.25" width="2" height="1.50" rx="1" fill="#d0b1ed"/><rect x="52" y="27.25" width="2" height="1.50" rx="1" fill="#d0b1ed"/><rect x="56" y="27.19" width="2" height="1.62" rx="1" fill="#d0b1ed"/><rect x="60" y="27.07" width="2" height="1.86" rx="1" fill="#d0b1ed"/><rect x="64" y="26.94" width="2" height="2.12" rx="1" fill="#d0b1ed"/><rect x="68" y="26.80" width="2" height="2.40" rx="1" fill="#d0b1ed"/><rect x="72" y="26.65" width="2" height="2.70" rx="1" fill="#d0b1ed"/><rect x="76" y="26.49" width="2" height="3.02" rx="1" fill="#d0b1ed"/><rect x="80" y="26.32" width="2" height="3.36" rx="1" fill="#d0b1ed"/><rect x="84" y="26.16" width="2" height="3.69" rx="1" fill="#d0b1ed"/><rect x="88" y="25.99" width="2" height="4.02" rx="1" fill="#d0b1ed"/><rect x="92" y="25.80" width="2" height="4.40" rx="1" fill="#d0b1ed"/><rect x="96" y="25.62" width="2" height="4.76" rx="1" fill="#d0b1ed"/><rect x="100" y="25.47" width="2" height="5.06" rx="1" fill="#d0b1ed"/><rect x="104" y="25.38" width="2" height="5.25" rx="1" fill="#d0b1ed"/><rect x="108" y="25.13" width="2" height="5.75" rx="1" fill="#d0b1ed"/><rect x="112" y="24.88" width="2" height="6.25" rx="1" fill="#d0b1ed"/><rect x="116" y="24.68" width="2" height="6.65" rx="1" fill="#d0b1ed"/><rect x="120" y="24.46" width="2" height="7.09" rx="1" fill="#d0b1ed"/><rect x="124" y="24.23" width="2" height="7.55" rx="1" fill="#d0b1ed"/><rect x="128" y="23.95" width="2" height="8.09" rx="1" fill="#d0b1ed"/><rect x="132" y="23.70" width="2" height="8.59" rx="1" fill="#d0b1ed"/><rect x="136" y="23.48" width="2" height="9.04" rx="1" fill="#d0b1ed"/><rect x="140" y="23.22" width="2" height="9.56" rx="1" fill="#d0b1ed"/><rect x="144" y="22.94" width="2" height="10.13" rx="1" fill="#d0b1ed"/><rect x="148" y="22.70" width="2" height="10.59" rx="1" fill="#d0b1ed"/><rect x="152" y="22.60" width="2" height="10.80" rx="1" fill="#d0b1ed"/><rect x="156" y="22.45" width="2" height="11.10" rx="1" fill="#d0b1ed"/><rect x="160" y="21.99" width="2" height="12.01" rx="1" fill="#d0b1ed"/><rect x="164" y="21.78" width="2" height="12.45" rx="1" fill="#d0b1ed"/><rect x="168" y="21.56" width="2" height="12.89" rx="1" fill="#d0b1ed"/><rect x="172" y="21.29" width="2" height="13.41" rx="1" fill="#d0b1ed"/><rect x="176" y="21.02" width="2" height="13.96" rx="1" fill="#d0b1ed"/><rect x="180" y="20.81" width="2" height="14.39" rx="1" fill="#d0b1ed"/><rect x="184" y="20.59" width="2" height="14.81" rx="1" fill="#d0b1ed"/><rect x="188" y="20.48" width="2" height="15.04" rx="1" fill="#d0b1ed"/><rect x="192" y="20.28" width="2" height="15.45" rx="1" fill="#d0b1ed"/><rect x="196" y="20.06" width="2" height="15.89" rx="1" fill="#d0b1ed"/><rect x="200" y="20.00" width="2" height="16.00" rx="1" fill="#d0b1ed"/><rect x="204" y="20.18" width="2" height="15.63" rx="1" fill="#d0b1ed"/><rect x="208" y="19.94" width="2" height="16.13" rx="1" fill="#d0b1ed"/><rect x="212" y="19.62" width="2" height="16.76" rx="1" fill="#d0b1ed"/><rect x="216" y="19.66" width="2" height="16.68" rx="1" fill="#d0b1ed"/><rect x="220" y="19.52" width="2" height="16.97" rx="1" fill="#d0b1ed"/><rect x="224" y="19.39" width="2" height="17.22" rx="1" fill="#d0b1ed"/><rect x="228" y="19.33" width="2" height="17.35" rx="1" fill="#d0b1ed"/><rect x="232" y="19.30" width="2" height="17.40" rx="1" fill="#d0b1ed"/><rect x="236" y="19.30" width="2" height="17.40" rx="1" fill="#d0b1ed"/><rect x="240" y="18.12" width="2" height="19.75" rx="1" fill="#d0b1ed"/><rect x="244" y="14.88" width="2" height="26.24" rx="1" fill="#d0b1ed"/><rect x="248" y="11.13" width="2" height="33.74" rx="1" fill="#d0b1ed"/><rect x="252" y="8.38" width="2" height="39.25" rx="1" fill="#d0b1ed"/><rect x="256" y="6.77" width="2" height="42.46" rx="1" fill="#d0b1ed"/><rect x="260" y="5.08" width="2" height="45.84" rx="1" fill="#d0b1ed"/><rect x="264" y="4.75" width="2" height="46.50" rx="1" fill="#d0b1ed"/><rect x="268" y="5.03" width="2" height="45.94" rx="1" fill="#d0b1ed"/><rect x="272" y="5.51" width="2" height="44.98" rx="1" fill="#d0b1ed"/><rect x="276" y="6.11" width="2" height="43.78" rx="1" fill="#d0b1ed"/><rect x="280" y="6.64" width="2" height="42.72" rx="1" fill="#d0b1ed"/><rect x="284" y="6.96" width="2" height="42.08" rx="1" fill="#d0b1ed"/><rect x="288" y="7.22" width="2" height="41.56" rx="1" fill="#d0b1ed"/><rect x="292" y="7.60" width="2" height="40.81" rx="1" fill="#d0b1ed"/><rect x="296" y="8.07" width="2" height="39.87" rx="1" fill="#d0b1ed"/><rect x="300" y="8.64" width="2" height="38.72" rx="1" fill="#d0b1ed"/><rect x="304" y="9.51" width="2" height="36.97" rx="1" fill="#d0b1ed"/><rect x="308" y="9.84" width="2" height="36.32" rx="1" fill="#d0b1ed"/><rect x="312" y="9.56" width="2" height="36.89" rx="1" fill="#d0b1ed"/><rect x="316" y="9.88" width="2" height="36.23" rx="1" fill="#d0b1ed"/><rect x="320" y="10.25" width="2" height="35.50" rx="1" fill="#d0b1ed"/><rect x="324" y="10.67" width="2" height="34.66" rx="1" fill="#d0b1ed"/><rect x="328" y="11.15" width="2" height="33.69" rx="1" fill="#d0b1ed"/><rect x="332" y="11.42" width="2" height="33.16" rx="1" fill="#d0b1ed"/><rect x="336" y="11.54" width="2" height="32.92" rx="1" fill="#d0b1ed"/><rect x="340" y="11.71" width="2" height="32.58" rx="1" fill="#d0b1ed"/><rect x="344" y="11.99" width="2" height="32.01" rx="1" fill="#d0b1ed"/><rect x="348" y="12.32" width="2" height="31.35" rx="1" fill="#d0b1ed"/><rect x="352" y="12.82" width="2" height="30.37" rx="1" fill="#d0b1ed"/><rect x="356" y="13.46" width="2" height="29.07" rx="1" fill="#d0b1ed"/><rect x="360" y="13.35" width="2" height="29.30" rx="1" fill="#d0b1ed"/><rect x="364" y="13.25" width="2" height="29.50" rx="1" fill="#d0b1ed"/><rect x="368" y="13.56" width="2" height="28.89" rx="1" fill="#d0b1ed"/><rect x="372" y="13.80" width="2" height="28.40" rx="1" fill="#d0b1ed"/><rect x="376" y="14.10" width="2" height="27.80" rx="1" fill="#d0b1ed"/><rect x="380" y="14.35" width="2" height="27.29" rx="1" fill="#d0b1ed"/><rect x="384" y="14.51" width="2" height="26.98" rx="1" fill="#d0b1ed"/><rect x="388" y="14.66" width="2" height="26.69" rx="1" fill="#d0b1ed"/><rect x="392" y="14.82" width="2" height="26.36" rx="1" fill="#d0b1ed"/><rect x="396" y="15.05" width="2" height="25.91" rx="1" fill="#d0b1ed"/><rect x="400" y="15.35" width="2" height="25.30" rx="1" fill="#d0b1ed"/><rect x="404" y="15.90" width="2" height="24.20" rx="1" fill="#d0b1ed"/><rect x="408" y="16.28" width="2" height="23.45" rx="1" fill="#d0b1ed"/><rect x="412" y="16.01" width="2" height="23.97" rx="1" fill="#d0b1ed"/><rect x="416" y="16.22" width="2" height="23.56" rx="1" fill="#d0b1ed"/><rect x="420" y="16.58" width="2" height="22.83" rx="1" fill="#d0b1ed"/><rect x="424" y="16.91" width="2" height="22.17" rx="1" fill="#d0b1ed"/><rect x="428" y="17.31" width="2" height="21.38" rx="1" fill="#d0b1ed"/><rect x="432" y="17.68" width="2" height="20.63" rx="1" fill="#d0b1ed"/><rect x="436" y="18.06" width="2" height="19.87" rx="1" fill="#d0b1ed"/><rect x="440" y="18.46" width="2" height="19.08" rx="1" fill="#d0b1ed"/><rect x="444" y="18.88" width="2" height="18.24" rx="1" fill="#d0b1ed"/><rect x="448" y="19.35" width="2" height="17.29" rx="1" fill="#d0b1ed"/><rect x="452" y="19.92" width="2" height="16.17" rx="1" fill="#d0b1ed"/><rect x="456" y="20.58" width="2" height="14.83" rx="1" fill="#d0b1ed"/><rect x="460" y="20.89" width="2" height="14.23" rx="1" fill="#d0b1ed"/><rect x="464" y="21.09" width="2" height="13.82" rx="1" fill="#d0b1ed"/><rect x="468" y="21.58" width="2" height="12.85" rx="1" fill="#d0b1ed"/><rect x="472" y="22.03" width="2" height="11.95" rx="1" fill="#d0b1ed"/><rect x="476" y="22.49" width="2" height="11.02" rx="1" fill="#d0b1ed"/><rect x="480" y="22.95" width="2" height="10.10" rx="1" fill="#d0b1ed"/><rect x="484" y="23.36" width="2" height="9.29" rx="1" fill="#d0b1ed"/><rect x="488" y="23.75" width="2" height="8.49" rx="1" fill="#d0b1ed"/><rect x="492" y="24.15" width="2" height="7.70" rx="1" fill="#d0b1ed"/><rect x="496" y="24.59" width="2" height="6.82" rx="1" fill="#d0b1ed"/><rect x="500" y="25.08" width="2" height="5.83" rx="1" fill="#d0b1ed"/><rect x="504" y="25.59" width="2" height="4.83" rx="1" fill="#d0b1ed"/><rect x="508" y="26.01" width="2" height="3.98" rx="1" fill="#d0b1ed"/><rect x="512" y="26.34" width="2" height="3.32" rx="1" fill="#d0b1ed"/><rect x="516" y="26.66" width="2" height="2.68" rx="1" fill="#d0b1ed"/><rect x="520" y="26.92" width="2" height="2.15" rx="1" fill="#d0b1ed"/><rect x="524" y="27.10" width="2" height="1.80" rx="1" fill="#d0b1ed"/><rect x="528" y="27.19" width="2" height="1.61" rx="1" fill="#d0b1ed"/><rect x="532" y="27.23" width="2" height="1.53" rx="1" fill="#d0b1ed"/><rect x="536" y="27.25" width="2" height="1.50" rx="1" fill="#d0b1ed"/><rect x="540" y="27.25" width="2" height="1.50" rx="1" fill="#d0b1ed"/><rect x="544" y="27.25" width="2" height="1.50" rx="1" fill="#d0b1ed"/><rect x="548" y="27.25" width="2" height="1.50" rx="1" fill="#d0b1ed"/><rect x="552" y="27.25" width="2" height="1.50" rx="1" fill="#d0b1ed"/><rect x="556" y="27.25" width="2" height="1.50" rx="1" fill="#d0b1ed"/><rect x="560" y="27.25" width="2" height="1.50" rx="1" fill="#d0b1ed"/><rect x="564" y="27.25" width="2" height="1.50" rx="1" fill="#d0b1ed"/><rect x="568" y="27.25" width="2" height="1.50" rx="1" fill="#d0b1ed"/><rect x="572" y="27.25" width="2" height="1.50" rx="1" fill="#d0b1ed"/><rect x="576" y="27.25" width="2" height="1.50" rx="1" fill="#d0b1ed"/><rect x="580" y="27.25" width="2" height="1.50" rx="1" fill="#d0b1ed"/><rect x="584" y="27.25" width="2" height="1.50" rx="1" fill="#d0b1ed"/><rect x="588" y="27.25" width="2" height="1.50" rx="1" fill="#d0b1ed"/><rect x="592" y="27.25" width="2" height="1.50" rx="1" fill="#d0b1ed"/><rect x="596" y="27.25" width="2" height="1.50" rx="1" fill="#d0b1ed"/><path d="M264.17 2V54" stroke="#efcfaa" stroke-opacity=".7"/></svg>