<svg xmlns="http://www.w3.org/2000/svg" viewBox="0 0 640 64"><rect x="0" y="31.25" width="2" height="1.50" rx="1" fill="#d0b1ed"/><rect x="4" y="31.25" width="2" height="1.50" rx="1" fill="#d0b1ed"/><rect x="8" y="31.25" width="2" height="1.50" rx="1" fill="#d0b1ed"/><rect x="12" y="31.25" width="2" height="1.50" rx="1" fill="#d0b1ed"/><rect x="16" y="31.25" width="2" height="1.50" rx="1" fill="#d0b1ed"/><rect x="20" y="31.25" width="2" height="1.50" rx="1" fill="#d0b1ed"/><rect x="24" y="31.25" width="2" height="1.50" rx="1" fill="#d0b1ed"/><rect x="28" y="31.25" width="2" height="1.50" rx="1" fill="#d0b1ed"/><rect x="32" y="31.25" width="2" height="1.50" rx="1" fill="#d0b1ed"/><rect x="36" y="31.25" width="2" height="1.50" rx="1" fill="#d0b1ed"/><rect x="40" y="31.25" width="2" height="1.50" rx="1" fill="#d0b1ed"/><rect x="44" y="31.25" width="2" height="1.50" rx="1" fill="#d0b1ed"/><rect x="48" y="31.25" width="2" height="1.50" rx="1" fill="#d0b1ed"/><rect x="52" y="31.25" width="2" height="1.50" rx="1" fill="#d0b1ed"/><rect x="56" y="31.20" width="2" height="1.59" rx="1" fill="#d0b1ed"/><rect x="60" y="31.00" width="2" height="2.01" rx="1" fill="#d0b1ed"/><rect x="64" y="30.76" width="2" height="2.49" rx="1" fill="#d0b1ed"/><rect x="68" y="30.47" width="2" height="3.07" rx="1" fill="#d0b1ed"/><rect x="72" y="30.03" width="2" height="3.93" rx="1" fill="#d0b1ed"/><rect x="76" y="29.93" width="2" height="4.14" rx="1" fill="#d0b1ed"/><rect x="80" y="29.83" width="2" height="4.35" rx="1" fill="#d0b1ed"/><rect x="84" y="29.67" width="2" height="4.65" rx="1" fill="#d0b1ed"/><rect x="88" y="29.36" width="2" height="5.29" rx="1" fill="#d0b1ed"/><rect x="92" y="28.69" width="2" height="6.63" rx="1" fill="#d0b1ed"/><rect x="96" y="28.85" width="2" height="6.30" rx="1" fill="#d0b1ed"/><rect x="100" y="29.65" width="2" height="4.69" rx="1" fill="#d0b1ed"/><rect x="104" y="28.65" width="2" height="6.70" rx="1" fill="#d0b1ed"/><rect x="108" y="28.40" width="2" height="7.20" rx="1" fill="#d0b1ed"/><rect x="112" y="27.95" width="2" height="8.09" rx="1" fill="#d0b1ed"/><rect x="116" y="27.36" width="2" height="9.29" rx="1" fill="#d0b1ed"/><rect x="120" y="27.47" width="2" height="9.05" rx="1" fill="#d0b1ed"/><rect x="124" y="27.82" width="2" height="8.36" rx="1" fill="#d0b1ed"/><rect x="128" y="27.22" width="2" height="9.55" rx="1" fill="#d0b1ed"/><rect x="132" y="26.66" width="2" height="10.68" rx="1" fill="#d0b1ed"/><rect x="136" y="26.73" width="2" height="10.54" rx="1" fill="#d0b1ed"/><rect x="140" y="26.81" width="2" height="10.39" rx="1" fill="#d0b1ed"/><rect x="144" y="27.68" width="2" height="8.63" rx="1" fill="#d0b1ed"/><rect x="148" y="26.63" width="2" height="10.74" rx="1" fill="#d0b1ed"/><rect x="152" y="26.61" width="2" height="10.78" rx="1" fill="#d0b1ed"/><rect x="156" y="27.06" width="2" height="9.89" rx="1" fill="#d0b1ed"/><rect x="160" y="25.44" width="2" height="13.13" rx="1" fill="#d0b1ed"/><rect x="164" y="24.90" width="2" height="14.21" rx="1" fill="#d0b1ed"/><rect x="168" y="25.14" width="2" height="13.72" rx="1" fill="#d0b1ed"/><rect x="172" y="25.22" width="2" height="13.56" rx="1" fill="#d0b1ed"/><rect x="176" y="26.80" width="2" height="10.40" rx="1" fill="#d0b1ed"/><rect x="180" y="25.76" width="2" height="12.48" rx="1" fill="#d0b1ed"/><rect x="184" y="25.45" width="2" height="13.10" rx="1" fill="#d0b1ed"/><rect x="188" y="22.69" width="2" height="18.61" rx="1" fill="#d0b1ed"/><rect x="192" y="26.05" width="2" height="11.90" rx="1" fill="#d0b1ed"/><rect x="196" y="24.01" width="2" height="15.98" rx="1" fill="#d0b1ed"/><rect x="200" y="23.55" width="2" height="16.89" rx="1" fill="#d0b1ed"/><rect x="204" y="24.78" width="2" height="14.45" rx="1" fill="#d0b1ed"/><rect x="208" y="24.66" width="2" height="14.68" rx="1" fill="#d0b1ed"/><rect x="212" y="24.53" width="2" height="14.93" rx="1" fill="#d0b1ed"/><rect x="216" y="23.29" width="2" height="17.43" rx="1" fill="#d0b1ed"/><rect x="220" y="20.78" width="2" height="22.44" rx="1" fill="#d0b1ed"/><rect x="224" y="21.60" width="2" height="20.80" rx="1" fill="#d0b1ed"/><rect x="228" y="22.12" width="2" height="19.76" rx="1" fill="#d0b1ed"/><rect x="232" y="23.74" width="2" height="16.51" rx="1" fill="#d0b1ed"/><rect x="236" y="23.61" width="2" height="16.78" rx="1" fill="#d0b1ed"/><rect x="240" y="22.59" width="2" height="18.83" rx="1" fill="#d0b1ed"/><rect x="244" y="23.15" width="2" height="17.69" rx="1" fill="#d0b1ed"/><rect x="248" y="23.44" width="2" height="17.13" rx="1" fill="#d0b1ed"/><rect x="252" y="22.93" width="2" height="18.14" rx="1" fill="#d0b1ed"/><rect x="256" y="18.94" width="2" height="26.12" rx="1" fill="#d0b1ed"/><rect x="260" y="19.55" width="2" height="24.91" rx="1" fill="#d0b1ed"/><rect x="264" y="19.19" width="2" height="25.62" rx="1" fill="#d0b1ed"/><rect x="268" y="19.26" width="2" height="25.49" rx="1" fill="#d0b1ed"/><rect x="272" y="10.44" width="2" height="43.11" rx="1" fill="#d0b1ed"/><rect x="276" y="7.54" width="2" height="48.91" rx="1" fill="#d0b1ed"/><rect x="280" y="7.25" width="2" height="49.50" rx="1" fill="#d0b1ed"/><rect x="284" y="8.09" width="2" height="47.82" rx="1" fill="#d0b1ed"/><rect x="288" y="8.39" width="2" height="47.22" rx="1" fill="#d0b1ed"/><rect x="292" y="8.34" width="2" height="47.31" rx="1" fill="#d0b1ed"/><rect x="296" y="8.64" width="2" height="46.73" rx="1" fill="#d0b1ed"/><rect x="300" y="8.38" width="2" height="47.23" rx="1" fill="#d0b1ed"/><rect x="304" y="9.63" width="2" height="44.74" rx="1" fill="#d0b1ed"/><rect x="308" y="8.68" width="2" height="46.65" rx="1" fill="#d0b1ed"/><rect x="312" y="10.65" width="2" height="42.70" rx="1" fill="#d0b1ed"/><rect x="316" y="10.81" width="2" height="42.38" rx="1" fill="#d0b1ed"/><rect x="320" y="12.26" width="2" height="39.47" rx="1" fill="#d0b1ed"/><rect x="324" y="11.54" width="2" height="40.92" rx="1" fill="#d0b1ed"/><rect x="328" y="12.09" width="2" height="39.82" rx="1" fill="#d0b1ed"/><rect x="332" y="11.61" width="2" height="40.79" rx="1" fill="#d0b1ed"/><rect x="336" y="13.79" width="2" height="36.43" rx="1" fill="#d0b1ed"/><rect x="340" y="12.72" width="2" height="38.55" rx="1" fill="#d0b1ed"/><rect x="344" y="13.61" width="2" height="36.77" rx="1" fill="#d0b1ed"/><rect x="348" y="14.86" width="2" height="34.29" rx="1" fill="#d0b1ed"/><rect x="352" y="14.61" width="2" height="34.78" rx="1" fill="#d0b1ed"/><rect x="356" y="14.24" width="2" height="35.53" rx="1" fill="#d0b1ed"/><rect x="360" y="14.12" width="2" height="35.76" rx="1" fill="#d0b1ed"/><rect x="364" y="15.52" width="2" height="32.97" rx="1" fill="#d0b1ed"/><rect x="368" y="15.75" width="2" height="32.49" rx="1" fill="#d0b1ed"/><rect x="372" y="17.06" width="2" height="29.87" rx="1" fill="#d0b1ed"/><rect x="376" y="17.25" width="2" height="29.49" rx="1" fill="#d0b1ed"/><rect x="380" y="17.68" width="2" height="28.64" rx="1" fill="#d0b1ed"/><rect x="384" y="16.98" width="2" height="30.03" rx="1" fill="#d0b1ed"/><rect x="388" y="17.68" width="2" height="28.63" rx="1" fill="#d0b1ed"/><rect x="392" y="18.46" width="2" height="27.08" rx="1" fill="#d0b1ed"/><rect x="396" y="18.68" width="2" height="26.65" rx="1" fill="#d0b1ed"/><rect x="400" y="18.42" width="2" height="27.16" rx="1" fill="#d0b1ed"/><rect x="404" y="19.05" width="2" height="25.89" rx="1" fill="#d0b1ed"/><rect x="408" y="20.06" width="2" height="23.89" rx="1" fill="#d0b1ed"/><rect x="412" y="19.47" width="2" height="25.05" rx="1" fill="#d0b1ed"/><rect x="416" y="20.22" width="2" height="23.57" rx="1" fill="#d0b1ed"/><rect x="420" y="20.47" width="2" height="23.06" rx="1" fill="#d0b1ed"/><rect x="424" y="21.02" width="2" height="21.95" rx="1" fill="#d0b1ed"/><rect x="428" y="18.78" width="2" height="26.44" rx="1" fill="#d0b1ed"/><rect x="432" y="18.80" width="2" height="26.40" rx="1" fill="#d0b1ed"/><rect x="436" y="19.09" width="2" height="25.81" rx="1" fill="#d0b1ed"/><rect x="440" y="21.03" width="2" height="21.94" rx="1" fill="#d0b1ed"/><rect x="444" y="21.28" width="2" height="21.43" rx="1" fill="#d0b1ed"/><rect x="448" y="21.01" width="2" height="21.99" rx="1" fill="#d0b1ed"/><rect x="452" y="21.91" width="2" height="20.18" rx="1" fill="#d0b1ed"/><rect x="456" y="22.28" width="2" height="19.43" rx="1" fill="#d0b1ed"/><rect x="460" y="22.44" width="2" height="19.12" rx="1" fill="#d0b1ed"/><rect x="464" y="22.30" width="2" height="19.39" rx="1" fill="#d0b1ed"/><rect x="468" y="21.69" width="2" height="20.62" rx="1" fill="#d0b1ed"/><rect x="472" y="21.74" width="2" height="20.51" rx="1" fill="#d0b1ed"/><rect x="476" y="22.21" width="2" height="19.58" rx="1" fill="#d0b1ed"/><rect x="480" y="22.13" width="2" height="19.75" rx="1" fill="#d0b1ed"/><rect x="484" y="23.25" width="2" height="17.50" rx="1" fill="#d0b1ed"/><rect x="488" y="24.25" width="2" height="15.51" rx="1" fill="#d0b1ed"/><rect x="492" y="24.84" width="2" height="14.31" rx="1" fill="#d0b1ed"/><rect x="496" y="25.18" width="2" height="13.64" rx="1" fill="#d0b1ed"/><rect x="500" y="25.49" width="2" height="13.02" rx="1" fill="#d0b1ed"/><rect x="504" y="26.14" width="2" height="11.72" rx="1" fill="#d0b1ed"/><rect x="508" y="26.30" width="2" height="11.40" rx="1" fill="#d0b1ed"/><rect x="512" y="26.37" width="2" height="11.25" rx="1" fill="#d0b1ed"/><rect x="516" y="26.59" width="2" height="10.81" rx="1" fill="#d0b1ed"/><rect x="520" y="26.79" width="2" height="10.42" rx="1" fill="#d0b1ed"/><rect x="524" y="26.91" width="2" height="10.17" rx="1" fill="#d0b1ed"/><rect x="528" y="26.71" width="2" height="10.59" rx="1" fill="#d0b1ed"/><rect x="532" y="26.97" width="2" height="10.07" rx="1" fill="#d0b1ed"/><rect x="536" y="27.28" width="2" height="9.43" rx="1" fill="#d0b1ed"/><rect x="540" y="27.51" width="2" height="8.99" rx="1" fill="#d0b1ed"/><rect x="544" y="27.97" width="2" height="8.06" rx="1" fill="#d0b1ed"/><rect x="548" y="28.03" width="2" height="7.94" rx="1" fill="#d0b1ed"/><rect x="552" y="27.97" width="2" height="8.05" rx="1" fill="#d0b1ed"/><rect x="556" y="28.34" width="2" height="7.32" rx="1" fill="#d0b1ed"/><rect x="560" y="28.81" width="2" height="6.38" rx="1" fill="#d0b1ed"/><rect x="564" y="29.27" width="2" height="5.46" rx="1" fill="#d0b1ed"/><rect x="568" y="29.50" width="2" height="4.99" rx="1" fill="#d0b1ed"/><rect x="572" y="29.66" width="2" height="4.68" rx="1" fill="#d0b1ed"/><rect x="576" y="29.85" width="2" height="4.31" rx="1" fill="#d0b1ed"/><rect x="580" y="29.94" width="2" height="4.12" rx="1" fill="#d0b1ed"/><rect x="584" y="30.00" width="2" height="4.00" rx="1" fill="#d0b1ed"/><rect x="588" y="30.19" width="2" height="3.62" rx="1" fill="#d0b1ed"/><rect x="592" y="30.41" width="2" height="3.19" rx="1" fill="#d0b1ed"/><rect x="596" y="30.60" width="2" height="2.80" rx="1" fill="#d0b1ed"/><rect x="600" y="30.73" width="2" height="2.54" rx="1" fill="#d0b1ed"/><rect x="604" y="30.85" width="2" height="2.29" rx="1" fill="#d0b1ed"/><rect x="608" y="30.95" width="2" height="2.10" rx="1" fill="#d0b1ed"/><rect x="612" y="31.04" width="2" height="1.92" rx="1" fill="#d0b1ed"/><rect x="616" y="31.11" width="2" height="1.79" rx="1" fill="#d0b1ed"/><rect x="620" y="31.16" width="2" height="1.69" rx="1" fill="#d0b1ed"/><rect x="624" y="31.20" width="2" height="1.61" rx="1" fill="#d0b1ed"/><rect x="628" y="31.22" width="2" height="1.56" rx="1" fill="#d0b1ed"/><rect x="632" y="31.24" width="2" height="1.53" rx="1" fill="#d0b1ed"/><rect x="636" y="31.25" width="2" height="1.51" rx="1" fill="#d0b1ed"/><path d="M272.0 3V61" stroke="#eed4b2" stroke-opacity=".44" stroke-width="1"/><path d="M426.9 3V61" stroke="#eed4b2" stroke-opacity=".44" stroke-width="1"/><path d="M468.4 3V61" stroke="#eed4b2" stroke-opacity=".44" stroke-width="1"/></svg>